<?xml version="1.0" encoding="UTF-8" standalone="no"?>
<!-- Created with Inkscape (http://www.inkscape.org/) -->

<svg
   width="207.2258mm"
   height="127.03226mm"
   viewBox="0 0 207.2258 127.03226"
   version="1.1"
   id="svg566"
   inkscape:version="1.2.2 (732a01da63, 2022-12-09)"
   sodipodi:docname="bteam_white.svg"
   xmlns:inkscape="http://www.inkscape.org/namespaces/inkscape"
   xmlns:sodipodi="http://sodipodi.sourceforge.net/DTD/sodipodi-0.dtd"
   xmlns="http://www.w3.org/2000/svg"
   xmlns:svg="http://www.w3.org/2000/svg">
  <sodipodi:namedview
     id="namedview568"
     pagecolor="#505050"
     bordercolor="#ffffff"
     borderopacity="1"
     inkscape:showpageshadow="0"
     inkscape:pageopacity="0"
     inkscape:pagecheckerboard="1"
     inkscape:deskcolor="#505050"
     inkscape:document-units="mm"
     showgrid="false"
     inkscape:zoom="0.74564394"
     inkscape:cx="523.70841"
     inkscape:cy="178.36932"
     inkscape:window-width="1920"
     inkscape:window-height="1017"
     inkscape:window-x="-8"
     inkscape:window-y="-8"
     inkscape:window-maximized="1"
     inkscape:current-layer="layer1" />
  <defs
     id="defs563" />
  <g
     inkscape:label="Warstwa 1"
     inkscape:groupmode="layer"
     id="layer1"
     transform="translate(33.354837,-101.48387)">
    <g
       id="g561"
       transform="translate(-11.557153,-173.17685)">
      <path
         style="fill:#ffffff;stroke-width:0.354838"
         d="M 63.363605,341.19298 V 323.9833 h -4.612902 -4.612905 v -3.19355 -3.19355 H 67.44425 80.750701 v 3.19355 3.19355 h -4.612902 -4.612905 v 17.20968 17.20968 H 67.44425 63.363605 Z"
         id="path541" />
      <path
         style="fill:#ffffff;stroke-width:0.354838"
         d="m 94.632261,358.35749 c -2.553375,-0.42411 -4.622255,-1.38004 -6.334334,-2.9268 -5.056264,-4.56803 -5.325382,-17.50223 -0.479012,-23.02194 3.069106,-3.49552 10.45261,-4.6783 14.933635,-2.39225 4.17284,2.12883 6.37509,7.36754 5.77982,13.74906 l -0.20687,2.21774 h -8.464821 c -9.480534,0 -8.861933,-0.20269 -8.071424,2.64464 0.583893,2.10312 2.252451,3.56899 4.681162,4.11251 1.737225,0.38878 2.547429,0.37001 5.489783,-0.12714 1.89849,-0.32077 3.78312,-0.67765 4.18808,-0.79305 0.65291,-0.18607 0.78864,0.0241 1.19847,1.85564 0.2542,1.136 0.53473,2.25461 0.6234,2.48578 0.20959,0.5464 -3.57226,1.71797 -7.15351,2.21608 -3.069527,0.42693 -3.500475,0.42552 -6.184379,-0.0203 z m 6.944909,-19.09705 c -0.41727,-3.52316 -1.934315,-4.98682 -5.168719,-4.98682 -1.367107,0 -2.003372,0.20092 -2.824636,0.89197 -1.061958,0.89358 -2.187953,3.48017 -2.187953,5.02608 v 0.82389 h 5.194588 5.19459 z"
         id="path543" />
      <path
         style="fill:#ffffff;stroke-width:0.354838"
         d="m 120.67005,358.4257 c -2.4525,-0.59707 -4.95334,-2.54956 -6.09614,-4.75949 -0.76457,-1.47851 -1.02916,-5.45146 -0.47489,-7.13088 1.31849,-3.99509 5.84527,-6.22945 12.62076,-6.22945 h 2.99866 l -0.008,-0.97581 c -0.004,-0.53669 -0.31852,-1.66044 -0.69831,-2.49722 -1.12554,-2.47993 -3.44788,-3.03323 -9.05196,-2.15664 -4.0143,0.62791 -3.78917,0.69527 -4.31058,-1.28968 -0.25633,-0.97581 -0.46913,-2.03422 -0.4729,-2.35203 -0.0145,-1.22804 9.32883,-2.6698 13.49004,-2.08162 2.74582,0.38812 5.08635,1.52704 6.23623,3.03462 1.74616,2.28933 1.91205,3.63166 1.91205,15.47155 v 10.94361 h -2.62276 -2.62276 l -0.56792,-1.41936 c -0.31235,-0.78064 -0.65289,-1.41936 -0.75676,-1.41936 -0.10386,0 -0.99509,0.5546 -1.98049,1.23244 -2.64427,1.81894 -4.86157,2.29464 -7.59447,1.62932 z m 5.27108,-5.8335 c 0.6422,-0.26832 1.75481,-1.00341 2.47247,-1.63353 1.23063,-1.0805 1.30484,-1.26661 1.30484,-3.27219 v -2.12652 l -3.34303,0.12296 c -2.9574,0.10878 -3.4486,0.22219 -4.25807,0.9832 -1.66138,1.5619 -1.06406,5.23486 0.98584,6.0621 1.0815,0.43644 1.51793,0.41552 2.83795,-0.13602 z"
         id="path547" />
      <path
         style="fill:#ffffff;stroke-width:0.354838"
         d="m 145.68618,343.85427 v -14.54839 h 2.98862 2.9886 l 0.40988,1.24194 c 0.47454,1.43788 0.7602,1.50695 2.14736,0.5192 2.04427,-1.45565 4.1815,-2.15428 6.66164,-2.17762 3.43608,-0.0323 4.98153,0.82605 6.99218,3.88365 0.0348,0.0529 1.02511,-0.5461 2.2007,-1.33113 2.77361,-1.85215 4.73774,-2.53001 7.39453,-2.55201 4.1521,-0.0344 6.77446,2.36882 7.57005,6.93743 0.22038,1.26552 0.38838,6.63043 0.38838,12.40277 v 10.17255 h -3.71045 -3.71045 l -0.10407,-10.26504 c -0.0997,-9.83167 -0.1359,-10.30729 -0.85821,-11.26613 -0.67083,-0.8905 -0.97251,-1.00021 -2.73087,-0.99305 -1.61904,0.007 -2.25306,0.20222 -3.50392,1.0812 l -1.52719,1.07316 -0.0942,10.18493 -0.0941,10.18493 h -3.70501 -3.70501 l -0.10407,-10.26504 c -0.0997,-9.83167 -0.1359,-10.30729 -0.85821,-11.26613 -0.67083,-0.8905 -0.97251,-1.00021 -2.73087,-0.99305 -1.61904,0.007 -2.25307,0.20222 -3.50392,1.0812 l -1.52719,1.07316 -0.0941,10.18493 -0.0942,10.18493 h -3.54294 -3.54295 z"
         id="path549" />
      <path
         style="fill:#ffffff;stroke-width:0.354838"
         d="M 22.557153,338.04068 V 317.5962 l 7.540323,0.006 c 10.446618,0.009 13.509424,0.73177 16.332608,3.8567 2.526268,2.79627 3.056797,7.62965 1.187561,10.81926 -1.1214,1.91352 -1.515912,2.23425 -3.980289,3.23585 l -2.00243,0.81384 2.039975,0.59304 c 1.580374,0.45943 2.451886,1.00745 3.868295,2.43248 2.126761,2.13969 2.694874,3.6646 2.683584,7.20319 -0.01672,5.24029 -3.060575,8.96455 -8.863176,10.84441 -1.991619,0.64522 -3.432577,0.7702 -10.556452,0.91562 l -8.249999,0.16839 z m 17.162859,13.09201 c 3.309067,-1.58422 3.925642,-6.17257 1.240425,-9.23087 -1.393722,-1.58736 -3.775361,-2.30562 -7.645106,-2.30562 h -2.951726 v 6.25433 6.25433 l 3.991935,-0.15754 c 2.898249,-0.11437 4.367975,-0.33756 5.364472,-0.81463 z m -1.521899,-18.64758 c 2.752625,-1.40428 3.66028,-4.59893 1.900748,-6.69001 -1.156573,-1.37451 -2.742292,-1.80734 -6.630418,-1.80982 l -3.104838,-0.002 v 4.6129 4.6129 h 3.207684 c 2.52857,0 3.508137,-0.15328 4.626824,-0.72399 z"
         id="path551" />
      <path
         style="fill:#ffffff;stroke-width:0.354838"
         d="m -21.797684,338.17685 v -63.51613 h 63.516129 63.516125 v 19.33871 19.33871 h -1.59677 -1.59678 V 295.77362 278.20911 H 41.895864 -18.249297 v 59.96774 59.96774 h 60.145161 60.145156 v -17.56452 -17.56451 h 1.59678 1.59677 v 19.33871 19.33871 H 41.718445 -21.797684 Z"
         id="path553" />
    </g>
  </g>
</svg>
