<?xml version="1.0" encoding="UTF-8" standalone="no"?>
<!-- Created with Inkscape (http://www.inkscape.org/) -->

<svg
   width="263.9502mm"
   height="164.96889mm"
   viewBox="0 0 263.9502 164.96889"
   version="1.1"
   id="svg5"
   inkscape:version="1.2.2 (732a01da63, 2022-12-09)"
   sodipodi:docname="logowhite.svg"
   xmlns:inkscape="http://www.inkscape.org/namespaces/inkscape"
   xmlns:sodipodi="http://sodipodi.sourceforge.net/DTD/sodipodi-0.dtd"
   xmlns="http://www.w3.org/2000/svg"
   xmlns:svg="http://www.w3.org/2000/svg">
  <sodipodi:namedview
     id="namedview7"
     pagecolor="#505050"
     bordercolor="#ffffff"
     borderopacity="1"
     inkscape:showpageshadow="0"
     inkscape:pageopacity="0"
     inkscape:pagecheckerboard="1"
     inkscape:deskcolor="#505050"
     inkscape:document-units="mm"
     showgrid="false"
     inkscape:zoom="0.74564394"
     inkscape:cx="512.97943"
     inkscape:cy="346.00965"
     inkscape:window-width="1920"
     inkscape:window-height="1017"
     inkscape:window-x="-8"
     inkscape:window-y="-8"
     inkscape:window-maximized="1"
     inkscape:current-layer="layer1" />
  <defs
     id="defs2" />
  <g
     inkscape:label="Warstwa 1"
     inkscape:groupmode="layer"
     id="layer1"
     transform="translate(30.136394,-56.967172)">
    <g
       id="tight-bounds"
       transform="matrix(0.66734985,0,0,0.66734985,-30.136394,56.967172)">
      <svg
         viewBox="0 0 395.52 247.2"
         height="247.2"
         width="395.51999"
         version="1.1"
         id="svg41">
        <g
           id="g4">
          <svg
             version="1.1"
             id="svg2"
             width="100%"
             height="100%" />
        </g>
        <g
           id="g37">
          <svg
             viewBox="0 0 395.52 247.2"
             height="247.2"
             width="395.51999"
             version="1.1"
             id="svg35">
            <g
               transform="translate(75.54432,92.574332)"
               id="g31">
              <svg
                 viewBox="0 0 244.43136 62.051336"
                 height="62.051334"
                 width="244.43137"
                 version="1.1"
                 id="svg29">
                <g
                   id="g27">
                  <svg
                     viewBox="0 0 244.43136 62.051336"
                     height="62.051334"
                     width="244.43137"
                     version="1.1"
                     id="svg25">
                    <g
                       id="g23">
                      <svg
                         viewBox="0 0 244.43136 62.051336"
                         height="62.051334"
                         width="244.43137"
                         version="1.1"
                         id="svg21">
                        <g
                           id="g19">
                          <svg
                             viewBox="0 0 244.43136 62.051336"
                             height="62.051334"
                             width="244.43137"
                             version="1.1"
                             id="svg17">
                            <g
                               id="textblocktransform">
                              <svg
                                 viewBox="0 0 244.43136 62.051336"
                                 height="62.051334"
                                 width="244.43137"
                                 id="textblock"
                                 version="1.1">
                                <g
                                   id="g13">
                                <svg
                                   viewBox="0 0 244.43136 62.051336"
                                   height="62.051334"
                                   width="244.43137"
                                   version="1.1"
                                   id="svg11">
                                <g
                                   id="g9">
                                <svg
                                   width="244.43137"
                                   viewBox="3.55 -35 139.23999 35.349998"
                                   height="62.051334"
                                   data-palette-color="#000000"
                                   version="1.1"
                                   id="svg7">
                                <path
                                   d="M 14.2,0 H 3.55 v -35 h 11 q 5.85,0 8.75,2.32 2.9,2.33 2.9,6.63 v 0 q 0,2.9 -1.62,4.8 -1.63,1.9 -4.43,2.3 v 0 q 3.55,0.6 5.5,2.85 1.95,2.25 1.95,5.6 v 0 q 0,4.75 -3.55,7.62 Q 20.5,0 14.2,0 Z m -3.75,-15.9 v 10.15 h 4.95 q 2.4,0 3.85,-1.28 1.45,-1.27 1.45,-3.45 0,-2.17 -1.63,-3.8 -1.62,-1.62 -4.72,-1.62 v 0 z m 4.35,-13.35 v 0 h -4.35 v 7.65 h 3.85 q 1.95,0 3.48,-1.2 1.52,-1.2 1.52,-3.1 v 0 q 0,-3.1 -4.5,-3.35 z M 45.6,0 H 38.4 V -29.15 H 30.35 V -35 h 23.2 v 5.85 H 45.6 Z m 30.1,-6 1.1,4.45 Q 72.05,0.3 68,0.3 v 0 q -11.75,0 -11.75,-12.7 v 0 q 0,-6.45 2.84,-9.78 2.86,-3.32 8.31,-3.32 v 0 q 4.5,0 7.19,2.8 2.71,2.8 2.71,8.3 v 0 q 0,2.2 -0.21,3.85 v 0 H 62.65 q 0,2.95 1.6,4.35 1.59,1.4 4.3,1.4 2.7,0 7.15,-1.2 z m -13.11,-9.15 h 8.46 v -0.35 q 0,-2.3 -1,-3.7 -1,-1.4 -3.15,-1.4 -2.15,0 -3.2,1.55 -1.05,1.55 -1.11,3.9 z M 101.39,0 h -4.8 l -1,-2.5 q -1.75,1.6 -3.1,2.22 -1.35,0.63 -3.25,0.63 v 0 q -3.2,0 -5.57,-2.23 -2.38,-2.22 -2.38,-5.92 0,-3.7 2.9,-5.83 2.9,-2.12 8.75,-2.12 v 0 h 2.05 q 0,-2.15 -1.02,-3.45 -1.03,-1.3 -3.13,-1.3 v 0 q -3.65,0 -7.4,1 v 0 l -1.1,-4.4 q 4.95,-1.6 9.95,-1.6 v 0 q 9.1,0 9.1,8.5 v 0 z m -6.5,-7.5 v -3.45 h -2.15 q -2.8,0 -3.8,0.75 -1,0.75 -1,2.17 0,1.43 0.75,2.33 0.75,0.9 1.95,0.9 v 0 q 1.7,0 4.25,-2.7 z m 20.15,-9.75 V 0 h -6.55 v -25 h 5.5 l 0.85,2.25 q 2.15,-1.6 3.73,-2.18 1.57,-0.57 3.67,-0.57 v 0 q 3.8,0 5.55,3.45 v 0 q 2.8,-2.05 4.52,-2.75 1.73,-0.7 3.78,-0.7 v 0 q 3.1,0 4.9,2.27 1.8,2.28 1.8,6.68 v 0 V 0 h -6.55 v -14.8 q 0,-4.6 -2.75,-4.6 v 0 q -2.05,0 -4.7,2.3 v 0 V 0 h -6.5 v -14.8 q 0,-4.6 -2.7,-4.6 v 0 q -2,0 -4.55,2.15 z"
                                   opacity="1"
                                   fill="#000000"
                                   class="undefined-text-0"
                                   data-fill-palette-color="primary"
                                   id="text-0" />
                                </svg>
                                </g>
                                </svg>
                                </g>
                              </svg>
                            </g>
                          </svg>
                        </g>
                      </svg>
                    </g>
                  </svg>
                </g>
              </svg>
            </g>
            <path
               d="M 200.064,86.574 V 28.222 H 9.308 v 190.756 h 190.756 v -58.352 h -5.596 v 52.756 H 14.903 V 33.818 h 179.565 v 52.756 z"
               fill="#000000"
               stroke="transparent"
               data-fill-palette-color="primary"
               id="path33" />
          </svg>
        </g>
        <defs
           id="defs39" />
      </svg>
      <rect
         width="395.51999"
         height="247.2"
         fill="none"
         stroke="none"
         visibility="hidden"
         id="rect43"
         x="0"
         y="0" />
    </g>
  </g>
</svg>
