<?xml version="1.0" encoding="UTF-8" standalone="no"?>
<svg
   height="666.65918"
   width="666.66919"
   version="1.1"
   id="svg38"
   sodipodi:docname="website-content-sections.svg"
   inkscape:version="1.2.2 (732a01da63, 2022-12-09)"
   xmlns:inkscape="http://www.inkscape.org/namespaces/inkscape"
   xmlns:sodipodi="http://sodipodi.sourceforge.net/DTD/sodipodi-0.dtd"
   xmlns="http://www.w3.org/2000/svg"
   xmlns:svg="http://www.w3.org/2000/svg">
  <defs
     id="defs42" />
  <sodipodi:namedview
     id="namedview40"
     pagecolor="#505050"
     bordercolor="#ffffff"
     borderopacity="1"
     inkscape:showpageshadow="0"
     inkscape:pageopacity="0"
     inkscape:pagecheckerboard="1"
     inkscape:deskcolor="#505050"
     showgrid="false"
     inkscape:zoom="0.6975"
     inkscape:cx="310.39427"
     inkscape:cy="334.05018"
     inkscape:window-width="1920"
     inkscape:window-height="1017"
     inkscape:window-x="-8"
     inkscape:window-y="-8"
     inkscape:window-maximized="1"
     inkscape:current-layer="svg38" />
  <g
     id="g6"
     transform="translate(-489.74541,-266.37542)">
    <path
       d="M 1154,397.83 621.2,268.79 492.16,801.58 l 532.8,129.04 z"
       fill="#3c2c5b"
       opacity="1"
       stroke-width="4"
       stroke="#000000"
       id="path4" />
  </g>
  <g
     id="g10"
     transform="translate(-489.74541,-266.37542)">
    <path
       d="m 570.51,380.76 337.23,-98.55 c 54.77,-16 112.08,15.38 128.08,70.16 l 98.55,337.23 c 16.01,54.77 -15.38,112.07 -70.15,128.08 L 726.99,916.22 C 672.21,932.23 614.91,900.84 598.9,846.07 L 500.36,508.84 c -16.01,-54.77 15.49,-112.11 70.15,-128.08 z"
       fill="#f0eee5"
       opacity="1"
       stroke-width="4"
       stroke="#000000"
       id="path8" />
  </g>
  <g
     id="g36"
     transform="translate(-489.74541,-266.37542)">
    <path
       d="m 726.58,413.18 -82.51,132.93 c -11.82,19.02 -15.18,42.07 -9.41,63.68 l 38.99,145.91 c 11.63,43.6 56.48,69.63 100.18,57.91 l 186.92,-49.85 c 43.7,-11.62 69.64,-56.47 58.02,-100.18 l -39,-145.9 C 974.01,496.07 959.5,477.72 939.81,467.16 L 802.07,393 c -26.6,-14.21 -59.64,-5.47 -75.49,20.18 z"
       fill="#3c2c5b"
       opacity="1"
       stroke-width="4"
       stroke="#000000"
       id="path12" />
    <path
       d="m 767.11,413.66 c 7.49,-2.02 15.47,-1.06 22.38,2.59 l 137.74,74.15 c 13.25,7.2 22.96,19.5 26.89,34.1 l 39,146 c 7.88,29.58 -9.7,59.84 -39.19,67.81 l -187.01,49.75 c -29.58,7.88 -59.84,-9.7 -67.81,-39.18 l -38.9,-145.91 c -3.85,-14.6 -1.54,-30.06 6.34,-42.93 L 748.96,427.1 c 4.13,-6.62 10.56,-11.43 18.15,-13.44 z m -6.82,-25.55 c -14.02,3.74 -26.03,12.67 -33.71,25.07 l -82.51,132.93 c -11.82,19.02 -15.18,42.07 -9.41,63.68 l 38.99,145.91 c 11.63,43.6 56.48,69.63 100.18,57.91 l 186.92,-49.85 c 43.7,-11.62 69.64,-56.47 58.02,-100.18 l -39,-145.9 C 974.01,496.07 959.5,477.72 939.81,467.16 L 802.07,393 c -12.87,-6.91 -27.75,-8.64 -41.78,-4.89 z"
       fill="#f8c60f"
       opacity="1"
       stroke-width="4"
       stroke="#000000"
       id="path14" />
    <path
       d="M 887.69,539.77 693.45,591.6 742.88,776.83 937.12,725.01 Z"
       fill="#3c2c5b00"
       opacity="0"
       stroke-width="4"
       stroke="#ffffff00"
       id="path16" />
    <path
       d="m 899.7,520.27 -194.24,51.82 49.42,185.24 194.24,-51.82 z"
       fill="#e1e1e1"
       opacity="1"
       stroke-width="4"
       stroke="#000000"
       id="path18" />
    <path
       d="M 835.5,670.02 633.6,605.95 673.56,755.6 c 11.62,43.61 56.47,69.64 100.18,57.92 l 186.82,-49.85 c 43.7,-11.62 69.64,-56.48 58.01,-100.09 L 978.62,513.93 Z"
       fill="#f8c60f"
       opacity="1"
       stroke-width="4"
       stroke="#000000"
       id="path20" />
    <path
       d="M 823.49,625.07 683.35,778.08 c 19.12,30.35 55.71,44.76 90.39,35.54 l 186.82,-49.95 c 34.67,-9.22 59.26,-39.96 60.7,-75.79 z"
       fill="#f8c60f"
       opacity="1"
       stroke-width="4"
       stroke="#000000"
       id="path22" />
    <path
       d="m 817.25,727.36 62.62,-16.71 c 8.84,-2.4 17.87,2.88 20.27,11.72 2.4,8.83 -2.88,17.86 -11.72,20.26 l -62.62,16.72 c -8.84,2.4 -17.87,-2.89 -20.27,-11.72 -2.4,-8.94 2.88,-17.96 11.72,-20.27 z"
       fill="#3c2c5b"
       opacity="1"
       stroke-width="4"
       stroke="#000000"
       id="path24" />
    <path
       d="m 829.16,741.19 47.26,-12.58"
       stroke="#000000"
       stroke-width="4"
       stroke-linecap="round"
       stroke-linejoin="round"
       opacity="1"
       fill="none"
       id="path26" />
    <path
       d="M 683.26,778.75 793.33,657.15"
       stroke="#000000"
       stroke-width="4"
       stroke-linecap="round"
       stroke-linejoin="round"
       opacity="1"
       fill="none"
       id="path28" />
    <path
       d="M 865.28,638.32 1020.5,687.5"
       stroke="#000000"
       stroke-width="4"
       stroke-linecap="round"
       stroke-linejoin="round"
       opacity="1"
       fill="none"
       id="path30" />
    <path
       d="m 662.13,612.1 -26.42,-7.97"
       stroke="#000000"
       stroke-width="4"
       stroke-linecap="round"
       stroke-linejoin="round"
       opacity="1"
       fill="none"
       id="path32" />
    <path
       d="m 957.2,534.3 19.59,-20.08"
       stroke="#000000"
       stroke-width="4"
       stroke-linecap="round"
       stroke-linejoin="round"
       opacity="1"
       fill="none"
       id="path34" />
  </g>
</svg>
